<svg width="1366" height="771" viewBox="0 0 1366 771" fill="none" xmlns="http://www.w3.org/2000/svg">
<path fill-rule="evenodd" clip-rule="evenodd" d="M1447 772.761C1426.69 768.581 1406.46 764.469 1386.59 760.429C1350.66 753.123 1315.89 746.052 1283.81 739.238C1166.46 714.305 1043.85 700.732 919.848 687.004L919.848 687.004C852.851 679.586 785.446 672.124 718.24 662.801C650.7 653.431 581.543 640.159 512.866 626.979C381.355 601.739 251.607 576.839 138.353 580.329C29.3957 583.686 -5.81233 612.261 -41.7069 641.393C-45.436 644.42 -49.1726 647.452 -53 650.463V830H1447V772.761Z" fill="#FFCBDB" fill-opacity="0.26"/>
<path fill-rule="evenodd" clip-rule="evenodd" d="M1462 -22H-38V9.18448C48.7582 34.3146 151.042 56.5355 249.403 74.3904C370.732 96.4144 491.262 100.834 612.474 105.279C659.55 107.006 706.729 108.736 754.097 111.502C785.494 113.336 817.563 115.67 849.592 118L849.592 118L849.593 118C946.342 125.041 1042.74 132.055 1119.23 125.193C1191.02 118.752 1224.93 100.078 1258.89 81.3691L1258.89 81.3682C1270.27 75.1048 1281.65 68.8374 1294.46 63.0236C1313.44 54.4086 1325.02 44.3343 1336.54 34.3096C1351.74 21.0899 1366.84 7.95626 1398.68 -1.63143C1416.5 -6.99683 1438.1 -11.4725 1462 -15.3834V-22Z" fill="#FFCBDB" fill-opacity="0.26"/>
</svg>
