<svg width="480" height="375" viewBox="0 0 480 375" fill="none" xmlns="http://www.w3.org/2000/svg">
<g clip-path="url(#clip0_2008_207)">
<path d="M418.66 298.996C414.764 299.331 410.844 299.279 406.958 298.84C364.239 294.121 306.066 295.463 258.644 324.82C193.061 365.413 90.2802 330.662 44.9415 311.756C10.2996 297.316 -7.68465 261.949 3.11771 228.751C3.2698 228.282 3.42611 227.814 3.59087 227.345C10.3883 207.617 23.8057 192.176 40.4212 183.992C54.9032 176.858 76.0474 161.963 85.4557 133.34C89.3423 121.522 94.6738 110.404 101.598 100.712C120.14 74.7575 158.956 36.1061 225.713 36.3467C237.418 36.4034 249.035 38.368 260.106 42.1632C284.495 50.4659 306.522 67.3455 323.319 90.7465C334.037 105.672 350.099 119.546 373.093 120.677C405.006 122.256 435.462 137.101 458.308 163.52C458.967 164.28 459.618 165.044 460.269 165.816C500.948 214.235 472.693 294.277 418.66 298.996Z" fill="#FFCBDB"/>
<path d="M85.8063 176.96C86.9963 176.96 87.9609 175.996 87.9609 174.807C87.9609 173.618 86.9963 172.654 85.8063 172.654C84.6164 172.654 83.6518 173.618 83.6518 174.807C83.6518 175.996 84.6164 176.96 85.8063 176.96Z" fill="white"/>
<path d="M239.583 301.9C240.773 301.9 241.737 300.937 241.737 299.748C241.737 298.559 240.773 297.595 239.583 297.595C238.393 297.595 237.428 298.559 237.428 299.748C237.428 300.937 238.393 301.9 239.583 301.9Z" fill="white"/>
<path d="M148.753 311.925C149.418 311.925 149.957 311.387 149.957 310.722C149.957 310.058 149.418 309.519 148.753 309.519C148.088 309.519 147.549 310.058 147.549 310.722C147.549 311.387 148.088 311.925 148.753 311.925Z" fill="white"/>
<path d="M415.327 253.676C415.992 253.676 416.531 253.137 416.531 252.473C416.531 251.808 415.992 251.27 415.327 251.27C414.662 251.27 414.123 251.808 414.123 252.473C414.123 253.137 414.662 253.676 415.327 253.676Z" fill="white"/>
<path d="M411.204 209.406C411.869 209.406 412.408 208.867 412.408 208.203C412.408 207.539 411.869 207 411.204 207C410.539 207 410 207.539 410 208.203C410 208.867 410.539 209.406 411.204 209.406Z" fill="white"/>
<path d="M444.055 198.381C444.72 198.381 445.259 197.843 445.259 197.178C445.259 196.514 444.72 195.975 444.055 195.975C443.39 195.975 442.851 196.514 442.851 197.178C442.851 197.843 443.39 198.381 444.055 198.381Z" fill="white"/>
<path d="M123.828 106.47C125.018 106.47 125.983 105.506 125.983 104.317C125.983 103.128 125.018 102.164 123.828 102.164C122.638 102.164 121.673 103.128 121.673 104.317C121.673 105.506 122.638 106.47 123.828 106.47Z" fill="white"/>
<path d="M236.618 109.916H234.7V108H233.918V109.916H232V110.697H233.918V112.609H234.7V110.697H236.618V109.916Z" fill="white"/>
<path d="M153.618 247.916H151.7V246H150.918V247.916H149V248.697H150.918V250.609H151.7V248.697H153.618V247.916Z" fill="white"/>
<path d="M181.634 287.958H179.716V286.042H178.934V287.958H177.016V288.739H178.934V290.651H179.716V288.739H181.634V287.958Z" fill="white"/>
<path d="M277.545 55.1722H276.671V54.2985H276.316V55.1722H275.441V55.5268H276.316V56.4005H276.671V55.5268H277.545V55.1722Z" fill="white"/>
<path d="M296.104 100.874H295.229V100H294.874V100.874H294V101.228H294.874V102.102H295.229V101.228H296.104V100.874Z" fill="white"/>
<path d="M280.104 170.874H279.229V170H278.875V170.874H278V171.228H278.875V172.102H279.229V171.228H280.104V170.874Z" fill="white"/>
<path d="M29.5597 220.634H28.6852V219.76H28.3303V220.634H27.4558V220.989H28.3303V221.862H28.6852V220.989H29.5597V220.634Z" fill="white"/>
<path d="M35.1039 276.874H34.2294V276H33.8745V276.874H33V277.228H33.8745V278.102H34.2294V277.228H35.1039V276.874Z" fill="white"/>
<path d="M178.267 65.7246H177.392V64.8509H177.037V65.7246H176.163V66.0792H177.037V66.9529H177.392V66.0792H178.267V65.7246Z" fill="white"/>
<path d="M125.036 191.932H124.162V191.058H123.807V191.932H122.932V192.286H123.807V193.16H124.162V192.286H125.036V191.932Z" fill="white"/>
<path d="M136.443 155.631H135.568V154.757H135.213V155.631H134.339V155.986H135.213V156.86H135.568V155.986H136.443V155.631Z" fill="white"/>
<g opacity="0.1">
<path opacity="0.1" d="M285.722 113.444C286.121 113.444 286.445 113.12 286.445 112.722C286.445 112.323 286.121 112 285.722 112C285.323 112 285 112.323 285 112.722C285 113.12 285.323 113.444 285.722 113.444Z" fill="black"/>
</g>
<g opacity="0.1">
<path opacity="0.1" d="M142.503 220.005C142.78 220.005 143.005 219.78 143.005 219.502C143.005 219.225 142.78 219 142.503 219C142.225 219 142 219.225 142 219.502C142 219.78 142.225 220.005 142.503 220.005Z" fill="black"/>
</g>
<path d="M403.41 181.531C403.839 181.531 404.187 181.183 404.187 180.754C404.187 180.325 403.839 179.978 403.41 179.978C402.98 179.978 402.632 180.325 402.632 180.754C402.632 181.183 402.98 181.531 403.41 181.531Z" fill="white"/>
<path d="M348.359 92.027C344.736 92.5193 338.968 93.9965 335.346 95.4033C314.701 103.317 298.769 121.253 292.966 143.129C291.067 150.339 290.715 153.258 290.715 162.683C290.68 172.566 291.137 176.365 293.318 185.052C296.202 196.376 301.02 206.646 307.491 215.263C310.129 218.744 316.389 225.005 319.097 226.834C320.188 227.607 321.032 228.275 320.961 228.346C320.891 228.416 319.941 228.24 318.781 227.924C315.053 226.974 311.043 227.396 311.325 228.733C311.395 229.12 311.712 229.295 312.134 229.19C314.068 228.803 317.62 229.084 320.047 229.823C323.564 230.913 328.242 232.707 327.995 232.918C327.925 233.023 326.167 233.762 324.127 234.606C318.394 236.927 314.42 239.46 314.42 240.796C314.42 241.781 315.264 241.605 316.565 240.409C317.198 239.846 318.781 238.826 320.047 238.158C322.825 236.681 328.523 234.36 328.769 234.606C328.875 234.676 327.011 236.646 324.689 238.967C320.856 242.801 320.504 243.223 321.032 243.68C321.911 244.419 323.423 245.122 326.096 246.001L328.488 246.81L328.277 249.166C327.995 252.261 328.593 255.814 329.895 258.346C330.457 259.471 332.497 262.777 334.396 265.661C338.195 271.429 339.461 274.172 340.129 277.865C341.325 284.794 338.089 293.059 331.653 299.53C325.78 305.438 318.71 309.377 300.176 317.045C287.831 322.144 285.58 323.164 281.641 325.485C276.858 328.299 274.22 331.253 273.904 334.137C273.834 334.981 273.939 335.192 274.502 335.192C274.994 335.192 275.24 334.876 275.416 334.032C276.295 329.671 282.169 326.048 300.035 318.698C317.902 311.347 324.795 307.724 331.266 302.273C337.351 297.103 341.852 288.029 341.852 280.89C341.852 275.649 340.164 271.464 334.607 263.094C330.528 256.974 329.824 255.145 329.859 250.784C329.859 249.131 329.93 247.654 330.035 247.513C330.141 247.338 331.548 247.513 333.13 247.865C336.049 248.533 343.329 248.92 343.822 248.428C343.927 248.287 343.259 246.001 342.239 243.328C341.043 240.128 340.516 238.193 340.657 237.666C340.797 237.138 340.657 236.646 340.27 236.189C339.918 235.802 339.707 235.415 339.812 235.309C339.883 235.204 341.852 235.063 344.174 234.993C351.63 234.712 357.96 233.023 365.592 229.331C389.05 217.971 407.972 191.875 411.665 165.814C412.333 160.995 412.333 151.781 411.63 146.822C407.866 119.706 389.156 97.7245 365.592 92.6248C361.899 91.8159 352.263 91.4994 348.359 92.027Z" fill="#FF6F9C"/>
<path d="M177.433 112.215C159.461 115.556 144.619 130.784 140.785 149.917C139.941 154.208 139.941 165.356 140.785 169.964C143.529 184.454 150.246 196.271 159.848 203.375L160.903 204.149L159.672 203.797C158.159 203.375 155.029 203.27 154.467 203.621C153.552 204.184 154.115 204.465 156.084 204.43C158.195 204.43 160.938 205.098 163.787 206.329L165.475 207.068L162.591 208.229C159.531 209.46 156.999 211.007 156.366 211.992C155.698 213.082 156.436 213.047 157.843 211.921C159.215 210.831 165.334 207.982 165.651 208.299C165.721 208.369 164.596 209.635 163.083 211.113C161.606 212.555 160.375 213.891 160.375 214.067C160.375 214.454 161.465 215.016 163.646 215.755L165.44 216.388L165.475 219.166C165.51 222.508 165.967 223.633 169.449 228.873C173.353 234.817 174.338 238.299 173.247 242.484C171.911 247.654 168.253 252.543 163.189 255.814C159.988 257.924 154.22 260.702 147.011 263.621C133.54 269.073 128.722 272.238 128.722 275.579C128.722 276.74 129.39 276.388 129.988 274.876C131.114 272.062 135.299 269.53 146.307 265.028C163.154 258.17 169.308 253.95 172.649 246.986C174.443 243.293 175.041 240.093 174.478 237.209C173.88 234.219 173.036 232.426 170.082 227.959C168.675 225.814 167.304 223.492 167.022 222.824C166.53 221.558 166.354 217.443 166.776 217.021C166.882 216.88 167.937 216.986 169.062 217.197C171.208 217.654 175.639 217.865 175.991 217.513C176.096 217.408 175.639 215.931 174.971 214.243C174.267 212.555 173.81 210.866 173.916 210.515C174.021 210.163 173.88 209.635 173.599 209.354C172.825 208.58 173.247 208.404 176.061 208.404C191.887 208.404 210.844 193.035 218.406 174.043C225.369 156.494 222.521 138.135 210.668 124.348C206.166 119.178 198.57 114.36 192.204 112.707C188.441 111.757 181.301 111.511 177.433 112.215Z" fill="#FF6F9C"/>
<path d="M245.029 178.897C242.04 179.319 237.433 181.007 234.549 182.73C229.168 185.931 223.505 192.613 221.29 198.416C219.601 202.883 218.968 206.294 218.968 211.218C219.004 222.367 223.189 232.601 230.434 239.178L232.649 241.183L231.348 240.937C229.871 240.655 228.113 240.972 228.394 241.429C228.499 241.605 228.992 241.64 229.484 241.535C230.469 241.359 232.685 241.851 234.76 242.73L236.131 243.293L234.056 244.172C231.63 245.192 229.308 246.81 229.977 247.021C230.223 247.091 230.68 246.916 230.996 246.599C231.841 245.861 235.639 244.172 235.885 244.419C235.991 244.524 235.358 245.368 234.443 246.247C233.564 247.162 232.825 248.006 232.825 248.182C232.825 248.322 233.599 248.744 234.513 249.061L236.237 249.694V251.664C236.272 253.844 236.694 254.864 238.875 258.1C240.95 261.159 241.618 262.812 241.618 265.098C241.618 268.932 239.472 272.801 235.85 275.474C233.177 277.478 230.434 278.85 223.4 281.769C214.467 285.497 211.372 287.467 211.372 289.471C211.372 290.667 211.618 290.562 212.216 289.155C212.954 287.396 215.522 285.849 222.45 282.93C229.941 279.835 233.388 278.111 236.166 276.142C239.895 273.469 241.97 269.952 242.251 265.872C242.427 262.953 241.899 261.511 239.156 257.291C236.694 253.528 235.991 249.589 237.89 250.046C239.472 250.433 242.321 250.679 242.849 250.503C243.306 250.292 243.271 250.046 242.638 248.322C242.251 247.267 241.864 245.896 241.794 245.333C241.653 244.278 241.688 244.278 243.306 244.278C250.023 244.243 259.203 239.284 264.795 232.637C271.829 224.266 275.135 215.438 274.537 206.4C273.693 192.543 264.513 181.148 252.521 179.002C249.566 178.475 248.019 178.44 245.029 178.897Z" fill="#FF6F9C"/>
<path d="M87.7491 190.151C71.7819 192.472 57.0105 205.45 51.5944 221.945C49.9414 226.974 49.5545 229.366 49.3435 236.365C49.1676 242.168 49.2731 243.645 49.9062 247.443C51.5944 257.361 55.0762 265.872 60.3517 272.836C62.4619 275.649 66.0141 279.307 68.5815 281.277L69.8124 282.226L68.5815 281.91C66.6823 281.382 63.7984 281.488 63.306 282.086C63.0598 282.367 62.9191 282.613 62.9894 282.648C63.0598 282.648 64.3962 282.683 65.9437 282.754C68.1594 282.824 69.3904 283.07 71.7116 283.985L74.6659 285.145L71.7819 286.341C68.6166 287.678 66.6471 288.803 65.6624 289.928C64.5369 291.159 65.6624 291.124 67.3153 289.893C68.898 288.662 73.9976 286.341 74.6307 286.552C74.8066 286.623 73.7163 287.889 72.1688 289.366C69.5311 291.898 69.3904 292.074 69.9531 292.601C70.3048 292.918 71.5357 293.481 72.6964 293.868L74.7714 294.606L74.6307 296.646C74.4197 299.635 75.2286 301.957 77.9367 306.001C81.5592 311.453 82.4384 313.528 82.5791 316.974C82.755 320.28 82.1923 322.32 80.3282 325.732C76.9519 331.886 71.5357 335.403 55.041 342.226C45.4044 346.2 42.4853 347.748 40.0234 350.14C38.3353 351.757 37.9836 352.32 37.9836 353.27C37.9836 354.712 38.7222 354.571 39.109 353.059C39.7773 350.456 44.1383 347.889 56.061 342.93C71.5709 336.529 77.0574 332.977 80.7151 327.138C83.0715 323.305 83.8101 320.737 83.6342 316.904C83.4232 313.141 82.7198 311.347 79.5897 306.669C76.4244 301.992 75.8968 300.726 75.6858 297.877C75.6155 296.505 75.6858 295.274 75.8617 295.169C76.0375 295.063 77.4443 295.169 78.9918 295.45C82.2274 296.048 84.0211 296.083 84.7597 295.661C85.1817 295.38 85.041 294.817 83.9508 292.074C83.1067 289.928 82.7901 288.662 83.0012 288.451C83.2122 288.24 83.1418 287.889 82.7901 287.467C82.0164 286.658 82.2626 286.587 86.8699 286.341C91.5826 286.13 94.7479 285.216 100.059 282.613C115.322 275.052 127.737 258.381 130.692 241.464C131.571 236.4 131.219 227.08 129.988 222.191C124.607 200.878 106.846 187.408 87.7491 190.151Z" fill="#FF6F9C"/>
</g>
<g clip-path="url(#clip1_2008_207)">
<path d="M359.875 276.074L355.07 284.297C354.328 285.566 353.938 287.031 353.938 288.516V289.062C353.938 293.379 357.434 296.875 361.75 296.875C366.066 296.875 369.562 293.379 369.562 289.062V288.516C369.562 287.031 369.172 285.586 368.43 284.297L363.625 276.074C363.234 275.41 362.531 275 361.75 275C360.969 275 360.266 275.41 359.875 276.074ZM384.875 276.074L380.07 284.297C379.328 285.566 378.938 287.031 378.938 288.516V289.062C378.938 293.379 382.434 296.875 386.75 296.875C391.066 296.875 394.562 293.379 394.562 289.062V288.516C394.562 287.031 394.172 285.586 393.43 284.297L388.625 276.074C388.234 275.41 387.531 275 386.75 275C385.969 275 385.266 275.41 384.875 276.074ZM405.07 284.297C404.328 285.566 403.938 287.031 403.938 288.516V289.062C403.938 293.379 407.434 296.875 411.75 296.875C416.066 296.875 419.562 293.379 419.562 289.062V288.516C419.562 287.031 419.172 285.586 418.43 284.297L413.625 276.074C413.234 275.41 412.531 275 411.75 275C410.969 275 410.266 275.41 409.875 276.074L405.07 284.297ZM368 309.375C368 305.918 365.207 303.125 361.75 303.125C358.293 303.125 355.5 305.918 355.5 309.375V318.75C348.605 318.75 343 324.355 343 331.25V345.117C344.621 346.133 346.535 346.875 348.625 346.875C351.262 346.875 353.937 345.684 356.125 344.258C357.18 343.574 358.059 342.871 358.664 342.363C358.957 342.109 359.191 341.895 359.348 341.758C359.426 341.68 359.484 341.641 359.504 341.602L359.523 341.582C360.129 340.957 360.969 340.625 361.848 340.645C362.727 340.664 363.527 341.055 364.113 341.699L364.133 341.719C364.152 341.738 364.211 341.797 364.27 341.855C364.406 341.992 364.602 342.187 364.875 342.441C365.422 342.949 366.203 343.633 367.18 344.297C369.172 345.684 371.672 346.855 374.27 346.855C376.867 346.855 379.367 345.684 381.359 344.297C382.336 343.613 383.117 342.949 383.664 342.441C383.937 342.187 384.133 341.992 384.27 341.855C384.328 341.797 384.387 341.738 384.406 341.719L384.426 341.699C385.012 341.016 385.871 340.645 386.77 340.645C387.668 340.645 388.527 341.035 389.113 341.699L389.133 341.719C389.152 341.738 389.211 341.797 389.27 341.855C389.406 341.992 389.602 342.187 389.875 342.441C390.422 342.949 391.203 343.633 392.18 344.297C394.172 345.684 396.672 346.855 399.27 346.855C401.867 346.855 404.367 345.684 406.359 344.297C407.336 343.613 408.117 342.949 408.664 342.441C408.938 342.187 409.133 341.992 409.27 341.855C409.328 341.797 409.387 341.738 409.406 341.719L409.426 341.699C409.992 341.035 410.813 340.664 411.691 340.645C412.57 340.625 413.391 340.957 414.016 341.582L414.035 341.602C414.074 341.641 414.113 341.68 414.191 341.758C414.348 341.895 414.562 342.109 414.875 342.363C415.48 342.871 416.34 343.574 417.414 344.258C419.602 345.684 422.277 346.875 424.914 346.875C427.004 346.875 428.918 346.113 430.539 345.117V331.25C430.539 324.355 424.934 318.75 418.039 318.75V309.375C418.039 305.918 415.246 303.125 411.789 303.125C408.332 303.125 405.539 305.918 405.539 309.375V318.75H393V309.375C393 305.918 390.207 303.125 386.75 303.125C383.293 303.125 380.5 305.918 380.5 309.375V318.75H368V309.375ZM430.5 352.07C428.84 352.715 426.945 353.125 424.875 353.125C420.48 353.125 416.594 351.191 413.977 349.492C413.176 348.965 412.453 348.438 411.848 347.969C411.301 348.438 410.656 348.945 409.934 349.434C407.414 351.172 403.664 353.125 399.25 353.125C394.836 353.125 391.086 351.172 388.586 349.434C387.902 348.965 387.277 348.477 386.75 348.027C386.223 348.477 385.598 348.945 384.914 349.434C382.414 351.172 378.664 353.125 374.25 353.125C369.836 353.125 366.086 351.172 363.586 349.434C362.863 348.926 362.219 348.418 361.672 347.969C361.066 348.438 360.344 348.965 359.543 349.492C356.906 351.191 353.02 353.125 348.625 353.125C346.555 353.125 344.66 352.695 343 352.07V368.75C343 372.207 345.793 375 349.25 375H424.25C427.707 375 430.5 372.207 430.5 368.75V352.07Z" fill="#FF6F9C"/>
</g>
<defs>
<clipPath id="clip0_2008_207">
<rect width="479.571" height="343.679" fill="white"/>
</clipPath>
<clipPath id="clip1_2008_207">
<rect width="87.5" height="100" fill="white" transform="translate(343 275)"/>
</clipPath>
</defs>
</svg>
