<svg width="512" height="512" viewBox="0 0 512 512" fill="none" xmlns="http://www.w3.org/2000/svg">
<g clip-path="url(#clip0_2011_2)">
<path d="M256 512C114.6 512 0 397.4 0 256C0 114.6 114.6 0 256 0C397.4 0 512 114.6 512 256C512 397.4 397.4 512 256 512ZM232 120V256C232 264 236 271.5 242.7 276L338.7 340C349.7 347.4 364.6 344.4 372 333.3C379.4 322.2 376.4 307.4 365.3 300L280 243.2V120C280 106.7 269.3 96 256 96C242.7 96 232 106.7 232 120Z" fill="#FF6F9C"/>
</g>
<defs>
<clipPath id="clip0_2011_2">
<rect width="512" height="512" fill="white"/>
</clipPath>
</defs>
</svg>
