<svg width="480" height="350" viewBox="0 0 480 350" fill="none" xmlns="http://www.w3.org/2000/svg">
<g clip-path="url(#clip0_2004_198)">
<path d="M418.66 298.996C414.764 299.331 410.844 299.279 406.958 298.84C364.239 294.121 306.066 295.463 258.644 324.82C193.061 365.413 90.2802 330.662 44.9415 311.756C10.2996 297.316 -7.68465 261.949 3.11771 228.751C3.2698 228.282 3.42611 227.814 3.59087 227.345C10.3883 207.617 23.8057 192.176 40.4212 183.992C54.9032 176.858 76.0474 161.963 85.4557 133.34C89.3423 121.522 94.6738 110.404 101.598 100.712C120.14 74.7575 158.956 36.1061 225.713 36.3467C237.418 36.4034 249.035 38.368 260.106 42.1632C284.495 50.4659 306.522 67.3455 323.319 90.7465C334.037 105.672 350.099 119.546 373.093 120.677C405.006 122.256 435.462 137.101 458.308 163.52C458.967 164.28 459.618 165.044 460.269 165.816C500.948 214.235 472.693 294.277 418.66 298.996Z" fill="#FFCBDB"/>
<path d="M85.8063 176.96C86.9963 176.96 87.9609 175.996 87.9609 174.807C87.9609 173.618 86.9963 172.654 85.8063 172.654C84.6164 172.654 83.6518 173.618 83.6518 174.807C83.6518 175.996 84.6164 176.96 85.8063 176.96Z" fill="white"/>
<path d="M239.583 301.9C240.773 301.9 241.737 300.937 241.737 299.748C241.737 298.559 240.773 297.595 239.583 297.595C238.393 297.595 237.428 298.559 237.428 299.748C237.428 300.937 238.393 301.9 239.583 301.9Z" fill="white"/>
<path d="M148.753 311.925C149.418 311.925 149.957 311.387 149.957 310.722C149.957 310.058 149.418 309.519 148.753 309.519C148.088 309.519 147.549 310.058 147.549 310.722C147.549 311.387 148.088 311.925 148.753 311.925Z" fill="white"/>
<path d="M415.327 253.676C415.992 253.676 416.531 253.137 416.531 252.473C416.531 251.808 415.992 251.27 415.327 251.27C414.662 251.27 414.123 251.808 414.123 252.473C414.123 253.137 414.662 253.676 415.327 253.676Z" fill="white"/>
<path d="M346.466 145.619C347.131 145.619 347.67 145.08 347.67 144.416C347.67 143.752 347.131 143.213 346.466 143.213C345.801 143.213 345.262 143.752 345.262 144.416C345.262 145.08 345.801 145.619 346.466 145.619Z" fill="white"/>
<path d="M444.055 198.381C444.72 198.381 445.259 197.843 445.259 197.178C445.259 196.514 444.72 195.975 444.055 195.975C443.39 195.975 442.851 196.514 442.851 197.178C442.851 197.843 443.39 198.381 444.055 198.381Z" fill="white"/>
<path d="M123.828 106.47C125.018 106.47 125.983 105.506 125.983 104.317C125.983 103.128 125.018 102.164 123.828 102.164C122.638 102.164 121.673 103.128 121.673 104.317C121.673 105.506 122.638 106.47 123.828 106.47Z" fill="white"/>
<path d="M64.6114 249.97H62.6934V248.053H61.9119V249.97H59.9939V250.751H61.9119V252.663H62.6934V250.751H64.6114V249.97Z" fill="white"/>
<path d="M112.772 249.126H110.854V247.209H110.073V249.126H108.155V249.906H110.073V251.819H110.854V249.906H112.772V249.126Z" fill="white"/>
<path d="M181.634 287.958H179.716V286.042H178.934V287.958H177.016V288.739H178.934V290.651H179.716V288.739H181.634V287.958Z" fill="white"/>
<path d="M277.545 55.1722H276.671V54.2985H276.316V55.1722H275.441V55.5268H276.316V56.4005H276.671V55.5268H277.545V55.1722Z" fill="white"/>
<path d="M402.172 135.371H401.297V134.497H400.942V135.371H400.068V135.725H400.942V136.599H401.297V135.725H402.172V135.371Z" fill="white"/>
<path d="M328.663 187.711H327.789V186.837H327.434V187.711H326.559V188.065H327.434V188.939H327.789V188.065H328.663V187.711Z" fill="white"/>
<path d="M29.5597 220.634H28.6852V219.76H28.3303V220.634H27.4558V220.989H28.3303V221.862H28.6852V220.989H29.5597V220.634Z" fill="white"/>
<path d="M65.469 292.391H64.5945V291.517H64.2397V292.391H63.3652V292.745H64.2397V293.619H64.5945V292.745H65.469V292.391Z" fill="white"/>
<path d="M178.267 65.7246H177.392V64.8509H177.037V65.7246H176.163V66.0792H177.037V66.9529H177.392V66.0792H178.267V65.7246Z" fill="white"/>
<path d="M125.036 191.932H124.162V191.058H123.807V191.932H122.932V192.286H123.807V193.16H124.162V192.286H125.036V191.932Z" fill="white"/>
<path d="M136.443 155.631H135.568V154.757H135.213V155.631H134.339V155.986H135.213V156.86H135.568V155.986H136.443V155.631Z" fill="white"/>
<g opacity="0.1">
<path opacity="0.1" d="M243.503 66.839H198.76V68.5738H243.503V66.839Z" fill="black"/>
</g>
<g opacity="0.1">
<path opacity="0.1" d="M301.638 146.269C302.037 146.269 302.361 145.946 302.361 145.547C302.361 145.149 302.037 144.826 301.638 144.826C301.239 144.826 300.916 145.149 300.916 145.547C300.916 145.946 301.239 146.269 301.638 146.269Z" fill="black"/>
</g>
<g opacity="0.1">
<path opacity="0.1" d="M320.898 131.888C320.891 132.579 320.684 133.253 320.304 133.83C319.924 134.407 319.386 134.863 318.754 135.143C318.122 135.423 317.422 135.516 316.739 135.41C316.056 135.305 315.417 135.005 314.899 134.547C314.382 134.089 314.006 133.492 313.819 132.827C313.631 132.163 313.638 131.458 313.84 130.797C314.041 130.136 314.429 129.547 314.956 129.1C315.483 128.653 316.128 128.367 316.813 128.275V128.275C318.402 129.195 319.791 130.424 320.898 131.888Z" fill="black"/>
</g>
<g opacity="0.1">
<path opacity="0.1" d="M321.143 148.025C319.964 149.702 318.422 151.093 316.632 152.094C314.842 153.095 312.849 153.681 310.801 153.808C310.801 153.618 310.776 153.428 310.776 153.234C310.777 152.032 311.112 150.854 311.744 149.831C312.376 148.808 313.28 147.98 314.355 147.44C315.429 146.9 316.633 146.669 317.832 146.772C319.031 146.875 320.177 147.309 321.143 148.025V148.025Z" fill="black"/>
</g>
<g opacity="0.1">
<path opacity="0.1" d="M120.372 219.967C120.65 219.967 120.875 219.742 120.875 219.465C120.875 219.187 120.65 218.963 120.372 218.963C120.095 218.963 119.87 219.187 119.87 219.465C119.87 219.742 120.095 219.967 120.372 219.967Z" fill="black"/>
</g>
<g opacity="0.1">
<path opacity="0.1" d="M133.984 221.195C133.161 222.366 132.085 223.336 130.836 224.035C129.587 224.733 128.197 225.142 126.768 225.231C126.768 225.1 126.768 224.965 126.768 224.809C126.769 223.97 127.003 223.148 127.444 222.434C127.884 221.721 128.515 221.143 129.265 220.767C130.014 220.39 130.854 220.228 131.691 220.3C132.527 220.372 133.327 220.675 134.001 221.174L133.984 221.195Z" fill="black"/>
</g>
<path d="M403.41 181.531C403.839 181.531 404.187 181.183 404.187 180.754C404.187 180.325 403.839 179.978 403.41 179.978C402.98 179.978 402.632 180.325 402.632 180.754C402.632 181.183 402.98 181.531 403.41 181.531Z" fill="white"/>
</g>
<g clip-path="url(#clip1_2004_198)">
<path d="M444.018 11.851C443.702 12.483 444.123 13.2204 445.071 13.5365C447.073 14.3792 448.232 13.5365 447.178 11.9563C446.335 10.4815 444.861 10.4815 444.018 11.851Z" fill="#FF6F9C"/>
<path d="M113.138 25.0188C112.295 27.0203 113.454 28.7058 115.877 28.7058C117.878 28.7058 119.037 26.915 118.299 24.7028C117.667 22.9119 113.875 23.1226 113.138 25.0188Z" fill="#FF6F9C"/>
<path d="M386.606 26.9149C386.606 27.863 385.553 29.2325 384.289 29.8645L381.971 31.1286L384.289 31.9714C385.658 32.4981 386.606 33.7622 386.606 35.1316C386.606 37.3438 386.712 37.3438 388.713 35.553C389.767 34.6049 391.452 33.9729 392.4 34.2889C394.296 35.1316 394.507 33.8675 392.716 32.0767C391.768 31.1286 391.768 30.4966 392.716 29.5485C394.613 27.6523 394.296 26.7043 391.874 27.3363C390.715 27.6523 389.029 27.3363 388.187 26.5989C386.923 25.5455 386.606 25.5455 386.606 26.9149Z" fill="#FF6F9C"/>
<path d="M37.1858 34.7103C36.4484 35.0263 35.8163 35.869 35.8163 36.6064C35.8163 38.5026 38.6606 39.4507 39.2926 37.7652C40.03 35.9744 38.7659 34.1836 37.1858 34.7103Z" fill="#FF6F9C"/>
<path d="M294.432 35.0263C291.588 35.7637 291.377 38.5026 293.905 40.8202C295.696 42.5057 296.012 42.5057 296.012 41.0309C296.012 40.1881 296.644 39.24 297.382 39.0294C298.435 38.8187 298.435 38.1866 297.592 36.6065C296.855 35.0263 295.907 34.605 294.432 35.0263Z" fill="#FF6F9C"/>
<path d="M238.6 42.4003C237.758 43.7697 239.022 45.7712 240.286 45.0338C241.55 44.1911 241.55 41.3469 240.286 41.3469C239.654 41.3469 238.916 41.7682 238.6 42.4003Z" fill="#FF6F9C"/>
<path d="M94.8081 54.3039C92.5959 56.0948 93.3333 60.2031 95.7562 59.5711C98.179 58.939 100.707 55.0413 98.6004 55.0413C97.7577 55.0413 96.9149 54.62 96.7042 54.0933C96.4936 53.5666 95.6508 53.6719 94.8081 54.3039Z" fill="#FF6F9C"/>
<path d="M159.804 55.4627C157.381 57.3589 158.751 60.8352 161.911 60.9406C163.281 60.9406 164.123 60.8352 163.807 60.5192C163.597 60.2032 163.807 59.1497 164.439 58.0963C165.177 56.5162 165.071 56.0948 163.913 56.0948C163.07 56.0948 162.227 55.6734 162.017 55.1467C161.911 54.62 160.858 54.7254 159.804 55.4627Z" fill="#FF6F9C"/>
<path d="M336.779 56.8322C335.305 58.2016 336.147 60.3085 338.149 60.3085C339.518 60.3085 340.256 59.5711 340.256 58.2016C340.256 56.2001 338.149 55.3574 336.779 56.8322Z" fill="#FF6F9C"/>
<path d="M441.911 69.5786C439.067 70.5267 439.172 74.2137 442.122 76.5312C444.229 78.1114 444.545 78.1114 444.545 76.6366C444.545 75.6885 445.177 74.7404 446.02 74.4244C447.178 74.003 447.178 73.3709 446.23 71.2641C445.598 69.8946 444.861 68.8412 444.545 68.8412C444.229 68.9466 443.07 69.2626 441.911 69.5786Z" fill="#FF6F9C"/>
<path d="M144.319 84.5372C144.319 85.696 145.056 86.6441 145.899 86.6441C146.742 86.6441 147.479 85.696 147.479 84.5372C147.479 83.3785 146.742 82.4304 145.899 82.4304C145.056 82.4304 144.319 83.3785 144.319 84.5372Z" fill="#FF6F9C"/>
<path d="M394.718 89.383C393.454 90.6471 393.875 93.8074 395.35 94.3341C397.562 95.1769 399.458 93.4914 399.037 91.2792C398.721 89.2777 395.982 88.1189 394.718 89.383Z" fill="#FF6F9C"/>
<path d="M198.676 92.0165C192.987 93.386 188.668 96.7569 186.351 101.813C181.926 111.505 184.876 118.984 198.57 132.468C203.837 137.63 211.001 144.161 214.477 146.9L220.903 151.851L229.646 144.372C249.977 127.096 256.403 118.563 256.403 109.293C256.403 100.128 250.609 93.5967 240.497 91.4898C235.756 90.4364 229.646 92.4379 224.695 96.6516C220.903 99.9172 220.271 100.128 219.007 98.6531C217.005 96.2302 209.526 92.2272 205.944 91.7005C204.259 91.3845 200.993 91.5952 198.676 92.0165Z" fill="#FF6F9C"/>
<path d="M46.0346 94.1234C40.5568 94.9661 36.8698 97.9157 33.9202 103.604C29.7065 111.61 32.024 118.563 42.0316 129.097C48.7735 136.155 64.5748 149.85 65.9443 149.85C67.4191 149.85 76.5839 142.16 86.17 132.679C98.8111 120.354 102.182 112.664 98.6004 104.236C93.86 93.07 79.5335 90.015 70.158 98.2317C65.9443 102.024 65.2069 102.024 62.5733 99.1798C58.6757 94.8608 52.5658 92.9646 46.0346 94.1234ZM60.5718 103.92L65.9443 109.503L71.3167 103.92C76.4785 98.5478 76.8999 98.2317 82.0617 98.2317C86.486 98.2317 87.9608 98.7585 91.0158 101.497C100.286 109.609 96.0722 118.457 73.4236 138.473L66.3657 144.793L59.2024 138.999C48.8788 130.467 40.2408 121.091 37.9232 115.719C36.0271 111.61 35.9217 110.557 37.0805 107.08C38.8713 101.708 44.0331 98.2317 50.459 98.2317C54.8833 98.2317 55.6207 98.6531 60.5718 103.92Z" fill="#FF6F9C"/>
<path d="M286.953 99.8119C286.531 100.76 286.742 102.024 287.374 102.656C288.954 104.236 292.009 102.761 291.588 100.655C291.166 98.2317 287.795 97.5997 286.953 99.8119Z" fill="#FF6F9C"/>
<path d="M294.959 120.564C288.111 122.46 282.318 130.045 282.318 136.892C282.423 141.633 286.004 148.375 292.009 154.695C297.803 160.91 315.29 176.185 316.554 176.185C317.923 176.185 333.409 162.807 340.045 155.854C350.369 145.004 352.792 137.735 348.683 129.413C343.416 118.563 328.457 116.351 320.241 125.094C317.186 128.36 315.922 128.36 313.288 125.515C310.865 122.777 303.702 119.3 300.752 119.406C299.594 119.406 296.96 119.932 294.959 120.564ZM311.919 130.783L316.659 136.155L320.767 131.309C327.825 122.777 336.147 121.723 342.573 128.465C350.263 136.576 345.944 145.425 325.613 163.228L316.87 170.918L312.656 167.652C302.122 159.33 291.798 148.375 289.059 143.002C286.637 138.051 286.531 136.892 287.479 133.732C289.797 126.78 296.96 122.882 303.913 124.673C305.704 125.199 309.18 127.938 311.919 130.783Z" fill="#FF6F9C"/>
<path d="M373.965 121.828C373.965 122.777 373.439 123.514 372.912 123.514C372.28 123.514 372.28 124.251 373.017 125.41C374.808 128.254 378.706 127.201 378.706 124.041C378.706 122.671 378.284 121.828 377.863 122.144C377.442 122.46 376.388 122.039 375.546 121.407C374.281 120.354 373.965 120.459 373.965 121.828Z" fill="#FF6F9C"/>
<path d="M116.509 124.462C116.087 124.989 116.298 125.726 116.825 126.042C117.351 126.463 118.089 126.253 118.405 125.726C118.826 125.199 118.615 124.462 118.089 124.146C117.562 123.725 116.825 123.935 116.509 124.462Z" fill="#FF6F9C"/>
<path d="M111.979 142.37C103.868 146.057 101.866 155.222 107.238 163.649C110.293 168.284 117.457 175.448 126.621 182.927L131.678 186.93L134.522 185.034C136.208 183.98 142.001 178.608 147.69 173.13C158.962 161.859 160.963 157.856 159.067 150.692C156.328 140.79 141.369 137.208 134.944 144.898C133.469 146.795 129.571 147.321 129.571 145.741C129.571 144.477 121.038 140.369 118.405 140.369C117.351 140.369 114.402 141.317 111.979 142.37Z" fill="#FF6F9C"/>
<path d="M18.1188 147.953C18.3295 149.533 19.1723 150.376 20.5417 150.376C23.702 150.376 23.386 146.268 20.2257 145.846C18.1188 145.53 17.8028 145.846 18.1188 147.953Z" fill="#FF6F9C"/>
<path d="M446.757 153.747C446.652 154.485 445.809 155.117 444.861 155.117C441.911 155.117 442.227 159.646 445.177 161.121C447.178 162.069 447.705 161.964 447.705 160.91C447.705 160.068 448.548 158.909 449.601 158.382C450.655 157.75 450.865 157.223 450.023 157.223C449.285 157.223 448.232 156.17 447.705 154.801C447.178 153.537 446.757 153.115 446.757 153.747Z" fill="#FF6F9C"/>
<path d="M287.585 166.704C287.585 167.231 288.111 167.758 288.743 167.758C289.27 167.758 289.481 167.231 289.165 166.704C288.849 166.072 288.322 165.651 288.006 165.651C287.795 165.651 287.585 166.072 287.585 166.704Z" fill="#FF6F9C"/>
<path d="M241.55 171.55C240.707 173.657 242.393 175.342 244.289 174.184C245.869 173.13 245.132 169.865 243.341 169.865C242.709 169.865 241.971 170.602 241.55 171.55Z" fill="#FF6F9C"/>
<path d="M46.3506 175.342C46.3506 176.29 45.5079 177.66 44.5598 178.292C43.1903 179.135 43.085 179.661 44.0331 179.977C44.6651 180.293 45.2972 181.558 45.2972 182.822C45.2972 184.507 45.6132 184.718 46.5613 183.77C47.2987 183.032 48.7735 182.506 49.8269 182.506C51.091 182.506 51.6177 181.979 51.3017 181.031C50.9857 180.293 51.3017 179.029 51.9338 178.397C52.7765 177.555 52.5658 177.239 51.1964 177.239C50.0376 177.239 48.5628 176.396 47.8254 175.342C46.5613 173.657 46.456 173.657 46.3506 175.342Z" fill="#FF6F9C"/>
<path d="M87.1181 188.405C85.4326 190.09 86.486 192.092 88.8036 191.776C90.0677 191.565 91.1211 190.722 91.1211 189.88C91.1211 188.194 88.3822 187.246 87.1181 188.405Z" fill="#FF6F9C"/>
<path d="M293.273 189.669C291.798 191.881 293.273 193.672 296.644 193.672C298.33 193.672 298.856 193.04 298.751 191.249C298.751 189.88 298.33 188.826 297.908 188.826C297.592 188.826 296.644 188.616 295.801 188.299C295.064 187.983 293.905 188.616 293.273 189.669Z" fill="#FF6F9C"/>
<path d="M399.248 197.78C399.248 198.623 399.985 199.36 400.828 199.36C401.67 199.36 402.408 198.623 402.408 197.78C402.408 196.938 401.67 196.2 400.828 196.2C399.985 196.2 399.248 196.938 399.248 197.78Z" fill="#FF6F9C"/>
<path d="M216.689 201.257C216.162 203.574 218.48 205.892 220.587 205.049C222.483 204.312 222.588 203.574 221.43 201.889C219.955 199.782 217.216 199.466 216.689 201.257Z" fill="#FF6F9C"/>
<path d="M331.828 204.417C325.087 207.893 321.821 213.266 321.926 220.429C322.032 229.383 328.352 237.705 346.471 253.19L358.48 263.514L366.17 257.088C378.706 246.764 389.556 235.493 392.4 229.91C398.932 217.163 392.506 203.995 378.706 201.889C372.912 201.046 368.066 202.626 362.694 207.261C358.48 210.843 358.375 210.843 356.584 208.841C353.845 205.786 344.575 201.467 340.677 201.467C338.886 201.467 334.883 202.731 331.828 204.417Z" fill="#FF6F9C"/>
<path d="M429.376 204.206C428.427 206.524 431.166 209.368 433.484 208.42C434.537 208.104 435.064 206.84 434.853 205.47C434.432 202.415 430.429 201.573 429.376 204.206Z" fill="#FF6F9C"/>
<path d="M152.43 216.215C144.214 218.743 138.104 227.276 137.998 236.336C137.998 246.448 148.217 259.406 170.971 278.262L180.241 285.847L186.772 280.263C209.842 260.564 218.796 250.557 221.324 241.813C225.117 228.224 214.898 215.162 200.466 215.162C194.357 215.162 188.879 217.374 184.138 221.904C180.451 225.38 179.609 225.38 175.079 221.377C168.442 215.583 160.542 213.792 152.43 216.215ZM167.494 222.536C169.812 223.695 173.499 227.065 175.606 229.91C177.818 232.859 179.819 235.177 180.241 235.177C180.557 235.177 182.137 233.281 183.612 231.069C187.615 225.064 192.987 221.272 198.57 220.64C204.47 220.008 208.683 221.693 212.792 226.328C216.9 231.069 217.743 236.125 215.425 242.129C213.318 247.607 202.047 259.932 189.09 270.993L180.135 278.578L173.604 273.1C162.227 263.725 149.481 250.662 146.321 245.184C141.896 237.6 142.423 230.752 147.69 225.696C153.378 220.218 160.752 219.059 167.494 222.536Z" fill="#FF6F9C"/>
<path d="M111.768 228.119C111.031 229.172 109.661 229.91 108.819 229.91C107.871 229.91 107.66 230.436 108.187 231.174C108.608 231.911 108.819 233.491 108.608 234.545C108.397 236.02 108.713 236.336 110.083 235.809C111.136 235.493 112.611 235.704 113.348 236.336C114.507 237.284 114.823 237.073 114.823 235.388C114.823 234.123 115.561 232.754 116.614 232.227C118.089 231.279 118.089 231.174 116.087 230.542C114.928 230.12 113.77 229.067 113.559 228.119C113.243 226.539 113.138 226.539 111.768 228.119Z" fill="#FF6F9C"/>
<path d="M452.972 240.339C452.972 243.078 454.763 244.131 456.659 242.551C458.555 240.971 457.502 238.337 454.974 238.337C453.71 238.337 452.972 239.075 452.972 240.339Z" fill="#FF6F9C"/>
<path d="M283.792 247.923C283.476 248.555 283.898 249.819 284.846 250.768C286.426 252.348 286.637 252.348 288.217 250.768C290.218 248.766 289.375 246.764 286.531 246.764C285.478 246.764 284.214 247.291 283.792 247.923Z" fill="#FF6F9C"/>
<path d="M304.439 253.506C304.439 254.454 303.702 255.508 302.859 255.824C300.858 256.667 300.752 258.352 302.754 258.352C303.597 258.352 304.65 259.3 304.966 260.564C305.598 262.566 305.809 262.566 307.494 261.091C308.548 260.143 309.812 259.406 310.444 259.406C310.971 259.406 311.287 257.931 310.971 256.245C310.76 254.454 309.917 253.085 309.18 253.085C308.442 253.085 307.073 252.769 306.125 252.453C304.966 252.032 304.439 252.348 304.439 253.506Z" fill="#FF6F9C"/>
<path d="M388.924 264.357C381.655 267.938 378.917 275.418 381.866 283.424C385.132 291.746 408.834 314.394 412.31 312.393C415.365 310.707 431.904 295.854 434.853 292.167C441.701 283.634 443.175 276.576 439.278 270.15C434.116 261.723 423.16 260.143 414.944 266.674L410.625 270.15L407.886 267.517C406.306 266.147 403.988 264.357 402.724 263.725C399.458 262.039 392.927 262.355 388.924 264.357ZM406.516 272.047L411.678 277.419L413.785 273.943C420 263.935 433.8 264.462 437.171 274.68C439.067 280.474 435.696 286.057 423.266 297.856C417.366 303.333 412.099 307.863 411.362 307.863C409.255 307.863 391.242 291.324 387.871 286.268C383.341 279.315 383.341 275.102 388.081 270.361C391.136 267.306 392.4 266.78 396.614 266.78C401.038 266.78 401.881 267.201 406.516 272.047Z" fill="#FF6F9C"/>
<path d="M92.8066 269.202C91.0157 271.415 92.4905 274.364 95.2294 273.943C96.8096 273.732 97.4416 272.889 97.4416 270.993C97.4416 268.044 94.7027 266.99 92.8066 269.202Z" fill="#FF6F9C"/>
<path d="M238.6 277.735C235.967 279.631 237.02 283.108 240.181 283.108C242.287 283.108 242.919 282.476 243.13 280.369C243.552 277.103 241.234 275.734 238.6 277.735Z" fill="#FF6F9C"/>
<path d="M240.497 300.384C231.542 304.597 229.014 314.816 234.808 323.77C237.968 328.615 245.974 336.727 255.982 345.049L261.881 349.895L267.043 345.576C276.629 337.675 286.637 327.457 289.375 322.822C296.117 311.445 289.586 299.12 276.629 299.014C271.783 298.909 270.308 299.436 266.727 302.28C264.304 304.176 262.092 305.756 261.776 305.756C261.46 305.756 259.353 304.387 257.246 302.596C252.084 298.488 246.29 297.75 240.497 300.384ZM257.035 307.863L262.092 313.025L264.936 309.443C268.728 304.387 273.258 302.28 278.42 302.912C287.163 304.071 290.85 312.077 286.531 320.293C284.214 324.507 270.941 337.886 264.304 342.731L261.565 344.628L251.663 335.989C241.129 326.719 234.913 318.713 234.913 314.5C234.913 307.863 240.602 302.701 247.871 302.596C251.347 302.596 252.611 303.333 257.035 307.863Z" fill="#FF6F9C"/>
<path d="M435.485 304.387C432.536 304.913 431.798 307.863 433.905 309.97C435.38 311.339 435.801 311.339 437.381 309.759C438.435 308.706 438.751 307.652 438.224 307.336C437.698 307.02 437.487 306.072 437.908 305.23C438.224 304.387 438.33 303.755 438.119 303.755C437.908 303.86 436.644 304.176 435.485 304.387Z" fill="#FF6F9C"/>
<path d="M45.2972 305.862C45.2972 306.494 46.0346 307.652 46.8773 308.495C48.2468 309.97 48.4575 309.865 48.4575 307.442C48.4575 305.756 47.8254 304.703 46.8773 304.703C46.0346 304.703 45.2972 305.23 45.2972 305.862Z" fill="#FF6F9C"/>
<path d="M205.418 310.075C205.418 310.602 205.944 310.813 206.471 310.497C207.103 310.181 207.524 309.654 207.524 309.338C207.524 309.127 207.103 308.916 206.471 308.916C205.944 308.916 205.418 309.443 205.418 310.075Z" fill="#FF6F9C"/>
<path d="M315.5 310.918C315.816 311.445 315.606 312.182 314.974 312.603C313.288 313.657 316.659 316.396 318.555 315.658C320.451 314.921 320.557 314.184 319.398 312.498C318.45 311.129 314.658 309.654 315.5 310.918Z" fill="#FF6F9C"/>
<path d="M371.226 335.779C370.278 337.57 370.489 338.307 371.858 339.15C373.86 340.519 376.494 338.834 376.704 336.095C376.915 333.356 372.491 333.04 371.226 335.779Z" fill="#FF6F9C"/>
</g>
<defs>
<clipPath id="clip0_2004_198">
<rect width="479.571" height="343.679" fill="white"/>
</clipPath>
<clipPath id="clip1_2004_198">
<rect width="440.858" height="339.729" fill="white" transform="translate(17.3815 10.2709)"/>
</clipPath>
</defs>
</svg>
